<?xml version="1.0" encoding="UTF-8"?> <svg xmlns="http://www.w3.org/2000/svg" width="354" height="61" viewBox="0 0 354 61" fill="none"> <path d="M84.55 30C84.55 27.8333 84.9333 25.7167 85.7 23.65C86.5 21.55 87.65 19.65 89.15 17.95C90.65 16.2167 92.4833 14.85 94.65 13.85C96.8167 12.8167 99.2833 12.3 102.05 12.3C105.317 12.3 108.133 13.0167 110.5 14.45C112.9 15.8833 114.683 17.75 115.85 20.05L110.55 23.7C109.95 22.3667 109.167 21.3167 108.2 20.55C107.233 19.75 106.2 19.2 105.1 18.9C104 18.5667 102.917 18.4 101.85 18.4C100.117 18.4 98.6 18.75 97.3 19.45C96.0333 20.15 94.9667 21.0667 94.1 22.2C93.2333 23.3333 92.5833 24.6 92.15 26C91.75 27.4 91.55 28.8 91.55 30.2C91.55 31.7667 91.8 33.2833 92.3 34.75C92.8 36.1833 93.5 37.4667 94.4 38.6C95.3333 39.7 96.4333 40.5833 97.7 41.25C99 41.8833 100.417 42.2 101.95 42.2C103.05 42.2 104.167 42.0167 105.3 41.65C106.433 41.2833 107.483 40.7 108.45 39.9C109.417 39.1 110.167 38.0667 110.7 36.8L116.35 40.05C115.65 41.8167 114.5 43.3167 112.9 44.55C111.333 45.7833 109.567 46.7167 107.6 47.35C105.633 47.9833 103.683 48.3 101.75 48.3C99.2167 48.3 96.9 47.7833 94.8 46.75C92.7 45.6833 90.8833 44.2833 89.35 42.55C87.85 40.7833 86.6667 38.8167 85.8 36.65C84.9667 34.45 84.55 32.2333 84.55 30ZM123.477 48V12.5H130.377V41.95H148.477V48H123.477ZM155.177 48V12.5H162.077V48H155.177ZM200.933 48V24.7L191.833 42.05H187.983L178.883 24.7V48H171.983V12.5H179.383L189.883 32.7L200.483 12.5H207.833V48H200.933ZM227.395 12.5H234.395L247.445 48H240.345L237.045 39.15H224.645L221.395 48H214.295L227.395 12.5ZM235.795 34.3L230.895 19.65L225.795 34.3H235.795Z" fill="#003260"></path> <path d="M280.389 18.55H269.039V48H262.189V18.55H250.839V12.5H280.389V18.55ZM301.616 48.25C299.016 48.25 296.649 47.75 294.516 46.75C292.416 45.75 290.599 44.4 289.066 42.7C287.566 40.9667 286.399 39.0333 285.566 36.9C284.732 34.7333 284.316 32.5167 284.316 30.25C284.316 27.8833 284.749 25.6333 285.616 23.5C286.516 21.3333 287.732 19.4167 289.266 17.75C290.832 16.05 292.666 14.7167 294.766 13.75C296.899 12.75 299.232 12.25 301.766 12.25C304.332 12.25 306.666 12.7667 308.766 13.8C310.899 14.8333 312.716 16.2167 314.216 17.95C315.716 19.6833 316.882 21.6167 317.716 23.75C318.549 25.8833 318.966 28.0833 318.966 30.35C318.966 32.6833 318.532 34.9333 317.666 37.1C316.799 39.2333 315.582 41.15 314.016 42.85C312.482 44.5167 310.649 45.8333 308.516 46.8C306.416 47.7667 304.116 48.25 301.616 48.25ZM291.316 30.25C291.316 31.7833 291.549 33.2667 292.016 34.7C292.482 36.1333 293.149 37.4167 294.016 38.55C294.916 39.65 295.999 40.5333 297.266 41.2C298.566 41.8333 300.032 42.15 301.666 42.15C303.332 42.15 304.816 41.8167 306.116 41.15C307.416 40.45 308.499 39.5333 309.366 38.4C310.232 37.2333 310.882 35.95 311.316 34.55C311.782 33.1167 312.016 31.6833 312.016 30.25C312.016 28.7167 311.766 27.25 311.266 25.85C310.799 24.4167 310.116 23.15 309.216 22.05C308.349 20.9167 307.266 20.0333 305.966 19.4C304.699 18.7333 303.266 18.4 301.666 18.4C299.966 18.4 298.466 18.75 297.166 19.45C295.899 20.1167 294.832 21.0167 293.966 22.15C293.099 23.2833 292.432 24.55 291.966 25.95C291.532 27.35 291.316 28.7833 291.316 30.25ZM326.759 48V12.5H341.809C343.442 12.5 344.942 12.8333 346.309 13.5C347.675 14.1667 348.859 15.0667 349.859 16.2C350.892 17.3333 351.692 18.6 352.259 20C352.825 21.4 353.109 22.8333 353.109 24.3C353.109 26.3 352.642 28.2 351.709 30C350.775 31.8 349.492 33.2667 347.859 34.4C346.225 35.5333 344.292 36.1 342.059 36.1H333.659V48H326.759ZM333.659 30.05H341.659C342.492 30.05 343.242 29.8167 343.909 29.35C344.575 28.8833 345.109 28.2167 345.509 27.35C345.909 26.45 346.109 25.4333 346.109 24.3C346.109 23.0667 345.875 22.0167 345.409 21.15C344.975 20.2833 344.392 19.6333 343.659 19.2C342.959 18.7667 342.192 18.55 341.359 18.55H333.659V30.05Z" fill="#F77F00"></path> <circle cx="50" cy="29" r="25" fill="#F77F00"></circle> <circle cx="25" cy="29" r="25" fill="#003260"></circle> <path d="M18 37.0656C24.5 31.8197 31 31.8197 37.5 37.0656C44 42.3115 50.5 42.3115 57 37.0656" stroke="white" stroke-width="3" stroke-linecap="round"></path> <path d="M18 29C24.5 23.7541 31 23.7541 37.5 29C44 34.2459 50.5 34.2459 57 29" stroke="white" stroke-width="3" stroke-linecap="round"></path> <path d="M18 20.9344C24.5 15.6885 31 15.6885 37.5 20.9344C44 26.1803 50.5 26.1803 57 20.9344" stroke="white" stroke-width="3" stroke-linecap="round"></path> </svg> 