<?xml version="1.0" encoding="UTF-8"?> <svg xmlns="http://www.w3.org/2000/svg" width="180" height="31" viewBox="0 0 180 31" fill="none"> <g clip-path="url(#clip0_103_51)"> <path d="M42.968 15.2461C42.968 14.1449 43.1628 13.0693 43.5524 12.019C43.959 10.9518 44.5434 9.98622 45.3057 9.12229C46.068 8.24143 46.9997 7.54688 48.1008 7.03868C49.2019 6.51356 50.4554 6.25098 51.8615 6.25098C53.5217 6.25098 54.9528 6.6152 56.1557 7.3436C57.3754 8.072 58.2815 9.02065 58.8746 10.1895L56.1811 12.0444C55.8762 11.3668 55.4783 10.8332 54.9869 10.4436C54.4954 10.037 53.9705 9.75753 53.4115 9.60507C52.8524 9.43569 52.3021 9.35098 51.7598 9.35098C50.8791 9.35098 50.1082 9.52885 49.4475 9.88458C48.8038 10.2403 48.2617 10.7062 47.8213 11.2821C47.3808 11.8581 47.0505 12.5018 46.8303 13.2133C46.627 13.9247 46.5254 14.6362 46.5254 15.3477C46.5254 16.1439 46.6524 16.9146 46.9065 17.66C47.1606 18.3884 47.5164 19.0406 47.9738 19.6165C48.4481 20.1756 49.0071 20.6245 49.6508 20.9633C50.3115 21.2851 51.0316 21.4461 51.8106 21.4461C52.3697 21.4461 52.9373 21.3529 53.5131 21.1665C54.0889 20.9802 54.6225 20.6838 55.1139 20.2772C55.6053 19.8706 55.9865 19.3455 56.2574 18.7018L59.1287 20.3534C58.7729 21.2513 58.1885 22.0136 57.3754 22.6403C56.579 23.2671 55.6816 23.7414 54.6819 24.0633C53.6823 24.3851 52.6913 24.5461 51.709 24.5461C50.4216 24.5461 49.2442 24.2835 48.177 23.7584C47.1098 23.2163 46.1866 22.5048 45.4074 21.6239C44.6451 20.7261 44.0437 19.7267 43.6033 18.6256C43.1798 17.5075 42.968 16.381 42.968 15.2461ZM62.7506 24.3936V6.35262H66.2571V21.319H75.4555V24.3936H62.7506ZM78.8604 24.3936V6.35262H82.367V24.3936H78.8604ZM102.113 24.3936V12.5526L97.4889 21.3698H95.5323L90.9077 12.5526V24.3936H87.4012V6.35262H91.1618L96.4979 16.6182L101.885 6.35262H105.62V24.3936H102.113ZM115.561 6.35262H119.119L125.751 24.3936H122.143L120.465 19.8961H114.164L112.512 24.3936H108.904L115.561 6.35262ZM119.83 17.4313L117.34 9.98622L114.748 17.4313H119.83Z" fill="white"></path> <path d="M142.493 9.42722H136.725V24.3936H133.244V9.42722H127.476V6.35264H142.493V9.42722ZM153.28 24.5207C151.959 24.5207 150.756 24.2666 149.672 23.7584C148.605 23.2502 147.681 22.5641 146.902 21.7002C146.14 20.8193 145.547 19.8368 145.124 18.7526C144.7 17.6515 144.488 16.5251 144.488 15.3731C144.488 14.1704 144.708 13.0269 145.149 11.9428C145.606 10.8417 146.224 9.86768 147.004 9.02067C147.8 8.15673 148.732 7.47915 149.799 6.98788C150.883 6.47968 152.069 6.22559 153.356 6.22559C154.66 6.22559 155.847 6.48817 156.914 7.01329C157.998 7.53841 158.921 8.24145 159.684 9.12231C160.446 10.0032 161.038 10.9857 161.462 12.0698C161.886 13.154 162.097 14.272 162.097 15.4239C162.097 16.6097 161.877 17.7532 161.437 18.8543C160.996 19.9384 160.378 20.9125 159.582 21.7764C158.802 22.6234 157.871 23.2925 156.787 23.7838C155.72 24.2751 154.551 24.5207 153.28 24.5207ZM148.046 15.3731C148.046 16.1523 148.164 16.9062 148.402 17.6346C148.638 18.363 148.977 19.0152 149.418 19.5912C149.875 20.1502 150.426 20.5991 151.07 20.9379C151.73 21.2597 152.475 21.4207 153.306 21.4207C154.152 21.4207 154.906 21.2513 155.567 20.9125C156.228 20.5567 156.778 20.0909 157.219 19.5149C157.659 18.922 157.989 18.2698 158.21 17.5584C158.447 16.83 158.565 16.1015 158.565 15.3731C158.565 14.5939 158.438 13.8485 158.184 13.1371C157.947 12.4087 157.6 11.7649 157.143 11.2059C156.702 10.63 156.152 10.181 155.491 9.85919C154.847 9.52038 154.119 9.351 153.306 9.351C152.442 9.351 151.679 9.52886 151.019 9.8846C150.375 10.2234 149.833 10.6808 149.393 11.2567C148.952 11.8327 148.613 12.4764 148.376 13.1879C148.156 13.8994 148.046 14.6278 148.046 15.3731ZM166.058 24.3936V6.35264H173.706C174.536 6.35264 175.298 6.52202 175.993 6.86083C176.687 7.19965 177.289 7.65702 177.797 8.23296C178.322 8.8089 178.729 9.45264 179.017 10.1641C179.304 10.8756 179.449 11.604 179.449 12.3494C179.449 13.3657 179.211 14.3313 178.737 15.2461C178.263 16.1608 177.611 16.9062 176.781 17.4821C175.95 18.0581 174.968 18.3461 173.833 18.3461H169.564V24.3936H166.058ZM169.564 15.2715H173.63C174.053 15.2715 174.434 15.1529 174.773 14.9157C175.112 14.6786 175.383 14.3398 175.587 13.8994C175.79 13.442 175.891 12.9253 175.891 12.3494C175.891 11.7226 175.773 11.189 175.536 10.7485C175.315 10.3081 175.019 9.97776 174.646 9.75755C174.291 9.53735 173.901 9.42722 173.478 9.42722H169.564V15.2715Z" fill="white"></path> <path d="M25.4098 27.443C32.4265 27.443 38.1147 21.7549 38.1147 14.7381C38.1147 7.72139 32.4265 2.0332 25.4098 2.0332C18.3931 2.0332 12.7049 7.72139 12.7049 14.7381C12.7049 21.7549 18.3931 27.443 25.4098 27.443Z" fill="white"></path> <path d="M12.7049 27.443C19.7216 27.443 25.4098 21.7549 25.4098 14.7381C25.4098 7.72139 19.7216 2.0332 12.7049 2.0332C5.68818 2.0332 0 7.72139 0 14.7381C0 21.7549 5.68818 27.443 12.7049 27.443Z" fill="white"></path> <path d="M9.14752 18.8364C12.4508 16.1704 15.7541 16.1704 19.0574 18.8364C22.3606 21.5023 25.6639 21.5023 28.9672 18.8364" stroke="#002D62" stroke-linecap="round"></path> <path d="M9.14752 14.7377C12.4508 12.0718 15.7541 12.0718 19.0574 14.7377C22.3606 17.4037 25.6639 17.4037 28.9672 14.7377" stroke="#002D62" stroke-linecap="round"></path> <path d="M9.14752 10.6391C12.4508 7.97316 15.7541 7.97316 19.0574 10.6391C22.3606 13.3051 25.6639 13.3051 28.9672 10.6391" stroke="#002D62" stroke-linecap="round"></path> </g> <defs> <clipPath id="clip0_103_51"> <rect width="179.902" height="31" fill="white"></rect> </clipPath> </defs> </svg> 