<?xml version="1.0" encoding="UTF-8"?> <svg xmlns="http://www.w3.org/2000/svg" width="25" height="25" viewBox="0 0 25 25" fill="none"> <path d="M11.8741 0.00388192C9.86781 0.0281007 5.55452 0.357788 3.14202 2.57107C1.34749 4.34919 0.72093 6.9781 0.647492 10.2289C0.586555 13.4679 0.513117 19.5508 6.3764 21.207V23.7297C6.3764 23.7297 6.33968 24.739 7.00687 24.9461C7.82874 25.2062 8.29671 24.4297 9.07796 23.5953L10.535 21.9476C14.5467 22.2812 17.6194 21.5125 17.9733 21.3984C18.7873 21.1383 23.3725 20.5523 24.1217 14.4687C24.8905 8.18591 23.7475 4.22732 21.6842 2.43669H21.6717C21.0491 1.86326 18.5467 0.0398194 12.9561 0.0195069C12.9561 0.0195069 12.5412 -0.00861808 11.8741 0.00310067V0.00388192ZM11.9428 1.77029C12.5123 1.76638 12.8584 1.7906 12.8584 1.7906C17.5905 1.8031 19.8491 3.22732 20.3819 3.70701C22.1194 5.19607 23.0147 8.76482 22.3592 14.0101C21.7366 19.0961 18.0178 19.4179 17.3295 19.6375C17.0366 19.7312 14.3303 20.3984 10.9209 20.1789C10.9209 20.1789 8.38187 23.2429 7.58812 24.032C7.46234 24.1703 7.31546 24.2109 7.22171 24.1906C7.08734 24.1578 7.04671 23.9914 7.05452 23.7633L7.07874 19.5765C2.10609 18.2015 2.39906 13.0133 2.45218 10.3031C2.51312 7.59294 3.02171 5.37576 4.53577 3.87419C6.57406 2.03123 10.2366 1.78279 11.9412 1.77029H11.9428ZM12.3178 4.47966C12.1467 4.47576 12.0045 4.61794 12.0045 4.78904C12.0045 4.96404 12.1467 5.10232 12.3178 5.10232C13.8842 5.07419 15.3944 5.66794 16.517 6.75857C17.6522 7.86091 18.2053 9.34216 18.2264 11.2789C18.2264 11.45 18.3647 11.5922 18.5397 11.5922V11.5797C18.7108 11.5797 18.853 11.4414 18.853 11.2703C18.9303 9.42732 18.2467 7.63669 16.9647 6.31013C15.728 5.10154 14.1608 4.47888 12.3178 4.47888V4.47966ZM8.19984 5.19607C7.98031 5.16326 7.75218 5.20857 7.56077 5.32185H7.54437C7.12093 5.57029 6.7264 5.88357 6.35218 6.30232C6.06702 6.63201 5.91234 6.9656 5.87171 7.28669C5.84749 7.4781 5.8639 7.66951 5.92093 7.85232L5.94124 7.86482C6.26234 8.80857 6.68187 9.71638 7.19437 10.5711C7.85374 11.7711 8.66703 12.882 9.61156 13.875L9.63968 13.9156L9.68421 13.9484L9.71234 13.9812L9.74515 14.0093C10.742 14.9578 11.853 15.7711 13.0577 16.4383C14.4327 17.1867 15.267 17.5406 15.7678 17.6875V17.6953C15.9147 17.7398 16.0483 17.7601 16.1826 17.7601C16.61 17.7273 17.0131 17.557 17.3303 17.2679C17.7373 16.9015 18.0584 16.4992 18.2991 16.0718V16.064C18.5389 15.6125 18.4577 15.1851 18.1116 14.8961C17.4202 14.2898 16.667 13.7523 15.8733 13.289C15.3405 13 14.7991 13.175 14.5795 13.4679L14.1116 14.0578C13.8717 14.3508 13.4358 14.3101 13.4358 14.3101L13.4233 14.3179C10.1725 13.4875 9.30531 10.1961 9.30531 10.1961C9.30531 10.1961 9.26468 9.74841 9.56546 9.52029L10.1514 9.04841C10.4319 8.82029 10.6272 8.27966 10.3264 7.74607C9.86624 6.94841 9.32952 6.19997 8.72328 5.50779C8.59281 5.34529 8.40609 5.23513 8.19828 5.19451L8.19984 5.19607ZM12.8584 6.12419C12.4436 6.12419 12.4436 6.75076 12.8623 6.75076C13.9037 6.76716 14.8967 7.19841 15.6209 7.94685C16.2803 8.67497 16.6217 9.64372 16.5569 10.6242C16.5608 10.7953 16.6991 10.9336 16.8702 10.9336L16.8827 10.95C17.0537 10.95 17.1959 10.8078 17.1959 10.6367C17.2241 9.39529 16.8381 8.35388 16.0811 7.51951C15.3202 6.68513 14.2584 6.21716 12.903 6.12419C12.8866 6.12419 12.8748 6.12419 12.8584 6.12419ZM13.3717 7.80857C12.9444 7.79607 12.928 8.43513 13.3514 8.44763C14.3811 8.50076 14.8811 9.02107 14.9467 10.0914C14.9506 10.2625 15.0889 10.3968 15.2561 10.3968H15.2686C15.4436 10.389 15.5819 10.2383 15.5694 10.0633C15.4959 8.66794 14.735 7.88201 13.3842 7.80935C13.3803 7.80935 13.3764 7.80935 13.3717 7.80935V7.80857Z" fill="#1D223E"></path> </svg> 