<?xml version="1.0" encoding="UTF-8"?> <svg xmlns="http://www.w3.org/2000/svg" width="180" height="31" viewBox="0 0 180 31" fill="none"> <g clip-path="url(#clip0_235_1223)"> <path d="M42.9678 15.2458C42.9678 14.1447 43.1626 13.0691 43.5522 12.0188C43.9588 10.9516 44.5432 9.98598 45.3055 9.12204C46.0678 8.24119 46.9994 7.54663 48.1006 7.03844C49.2017 6.51332 50.4552 6.25073 51.8612 6.25073C53.5215 6.25073 54.9526 6.61496 56.1555 7.34336C57.3751 8.07175 58.2813 9.0204 58.8743 10.1893L56.1809 12.0442C55.876 11.3666 55.478 10.833 54.9866 10.4434C54.4952 10.0368 53.9702 9.75729 53.4112 9.60483C52.8522 9.43545 52.3018 9.35073 51.7596 9.35073C50.8789 9.35073 50.1079 9.5286 49.4473 9.88434C48.8035 10.2401 48.2615 10.7059 47.821 11.2819C47.3806 11.8578 47.0503 12.5016 46.8301 13.213C46.6268 13.9245 46.5252 14.636 46.5252 15.3475C46.5252 16.1436 46.6522 16.9144 46.9063 17.6597C47.1604 18.3881 47.5161 19.0404 47.9735 19.6163C48.4478 20.1753 49.0068 20.6242 49.6506 20.963C50.3112 21.2849 51.0313 21.4458 51.8104 21.4458C52.3694 21.4458 52.9371 21.3527 53.5129 21.1663C54.0886 20.9799 54.6222 20.6835 55.1137 20.277C55.6051 19.8704 55.9862 19.3453 56.2571 18.7016L59.1284 20.3532C58.7727 21.251 58.1883 22.0133 57.3751 22.6401C56.5788 23.2668 55.6813 23.7412 54.6817 24.063C53.6821 24.3849 52.6911 24.5458 51.7088 24.5458C50.4213 24.5458 49.244 24.2832 48.1768 23.7581C47.1096 23.216 46.1863 22.5045 45.4071 21.6237C44.6448 20.7259 44.0435 19.7264 43.603 18.6253C43.1795 17.5073 42.9678 16.3808 42.9678 15.2458ZM62.7503 24.3934V6.35237H66.2569V21.3188H75.4553V24.3934H62.7503ZM78.8602 24.3934V6.35237H82.3667V24.3934H78.8602ZM102.113 24.3934V12.5524L97.4886 21.3696H95.5321L90.9075 12.5524V24.3934H87.4009V6.35237H91.1616L96.4976 16.6179L101.885 6.35237H105.62V24.3934H102.113ZM115.561 6.35237H119.118L125.75 24.3934H122.142L120.465 19.8958H114.164L112.512 24.3934H108.904L115.561 6.35237ZM119.83 17.4311L117.34 9.98598L114.748 17.4311H119.83Z" fill="#1D223E"></path> <path d="M142.493 9.42698H136.725V24.3934H133.244V9.42698H127.476V6.35239H142.493V9.42698ZM153.28 24.5204C151.959 24.5204 150.756 24.2663 149.672 23.7581C148.605 23.2499 147.681 22.5639 146.902 21.6999C146.14 20.8191 145.547 19.8365 145.124 18.7524C144.7 17.6513 144.488 16.5248 144.488 15.3729C144.488 14.1701 144.709 13.0267 145.149 11.9426C145.607 10.8414 146.224 9.86744 147.004 9.02042C147.8 8.15649 148.732 7.47891 149.799 6.98764C150.883 6.47944 152.069 6.22534 153.357 6.22534C154.661 6.22534 155.847 6.48793 156.914 7.01305C157.998 7.53817 158.921 8.24121 159.684 9.12206C160.446 10.0029 161.038 10.9855 161.462 12.0696C161.886 13.1537 162.098 14.2718 162.098 15.4237C162.098 16.6095 161.877 17.7529 161.437 18.854C160.996 19.9382 160.378 20.9122 159.582 21.7762C158.802 22.6232 157.871 23.2923 156.787 23.7835C155.72 24.2748 154.551 24.5204 153.28 24.5204ZM148.046 15.3729C148.046 16.1521 148.164 16.906 148.402 17.6344C148.638 18.3628 148.977 19.015 149.418 19.5909C149.875 20.1499 150.426 20.5988 151.07 20.9376C151.73 21.2595 152.475 21.4204 153.306 21.4204C154.152 21.4204 154.907 21.251 155.567 20.9122C156.228 20.5565 156.778 20.0906 157.219 19.5147C157.659 18.9218 157.989 18.2696 158.21 17.5581C158.447 16.8297 158.566 16.1013 158.566 15.3729C158.566 14.5937 158.438 13.8483 158.184 13.1368C157.947 12.4084 157.6 11.7647 157.143 11.2057C156.702 10.6297 156.152 10.1808 155.491 9.85895C154.847 9.52013 154.119 9.35075 153.306 9.35075C152.442 9.35075 151.679 9.52862 151.019 9.88436C150.375 10.2232 149.833 10.6805 149.393 11.2565C148.952 11.8324 148.613 12.4762 148.376 13.1876C148.156 13.8991 148.046 14.6275 148.046 15.3729ZM166.058 24.3934V6.35239H173.706C174.536 6.35239 175.298 6.52177 175.993 6.86059C176.687 7.1994 177.289 7.65678 177.797 8.23272C178.322 8.80866 178.729 9.45239 179.017 10.1639C179.305 10.8753 179.449 11.6037 179.449 12.3491C179.449 13.3655 179.212 14.3311 178.737 15.2458C178.263 16.1606 177.611 16.906 176.781 17.4819C175.95 18.0578 174.968 18.3458 173.833 18.3458H169.564V24.3934H166.058ZM169.564 15.2712H173.63C174.053 15.2712 174.434 15.1527 174.773 14.9155C175.112 14.6783 175.383 14.3396 175.587 13.8991C175.79 13.4417 175.892 12.9251 175.892 12.3491C175.892 11.7224 175.773 11.1887 175.536 10.7483C175.315 10.3078 175.019 9.97751 174.646 9.75731C174.291 9.53711 173.901 9.42698 173.478 9.42698H169.564V15.2712Z" fill="#1D223E"></path> <path d="M25.41 27.4426C32.4267 27.4426 38.1149 21.7544 38.1149 14.7376C38.1149 7.7209 32.4267 2.03271 25.41 2.03271C18.3933 2.03271 12.7051 7.7209 12.7051 14.7376C12.7051 21.7544 18.3933 27.4426 25.41 27.4426Z" fill="#1D223E"></path> <path d="M12.7049 27.4426C19.7216 27.4426 25.4098 21.7544 25.4098 14.7376C25.4098 7.7209 19.7216 2.03271 12.7049 2.03271C5.68818 2.03271 0 7.7209 0 14.7376C0 21.7544 5.68818 27.4426 12.7049 27.4426Z" fill="#1D223E"></path> <path d="M9.14746 18.8366C12.4507 16.1707 15.754 16.1707 19.0573 18.8366C22.3606 21.5026 25.6639 21.5026 28.9671 18.8366" stroke="white" stroke-linecap="round"></path> <path d="M9.14746 14.7377C12.4507 12.0718 15.754 12.0718 19.0573 14.7377C22.3606 17.4037 25.6639 17.4037 28.9671 14.7377" stroke="white" stroke-linecap="round"></path> <path d="M9.14746 10.6389C12.4507 7.97292 15.754 7.97292 19.0573 10.6389C22.3606 13.3048 25.6639 13.3048 28.9671 10.6389" stroke="white" stroke-linecap="round"></path> </g> <defs> <clipPath id="clip0_235_1223"> <rect width="179.902" height="31" fill="white"></rect> </clipPath> </defs> </svg> 