<?xml version="1.0" encoding="UTF-8"?> <svg xmlns="http://www.w3.org/2000/svg" width="25" height="25" viewBox="0 0 25 25" fill="none"> <path d="M11.8734 0.0038514C9.8672 0.0280701 5.55391 0.357758 3.14141 2.57104C1.34688 4.34916 0.72032 6.97807 0.646882 10.2289C0.585945 13.4679 0.512507 19.5507 6.37579 21.207V23.7296C6.37579 23.7296 6.33907 24.739 7.00626 24.946C7.82813 25.2062 8.2961 24.4296 9.07735 23.5953L10.5344 21.9476C14.5461 22.2812 17.6188 21.5124 17.9727 21.3984C18.7867 21.1382 23.3719 20.5523 24.1211 14.4687C24.8899 8.18588 23.7469 4.22729 21.6836 2.43666H21.6711C21.0484 1.86323 18.5461 0.0397889 12.9555 0.0194764C12.9555 0.0194764 12.5406 -0.00864859 11.8734 0.00307015V0.0038514ZM11.9422 1.77026C12.5117 1.76635 12.8578 1.79057 12.8578 1.79057C17.5899 1.80307 19.8484 3.22729 20.3813 3.70698C22.1188 5.19604 23.0141 8.76479 22.3586 14.0101C21.7359 19.096 18.0172 19.4179 17.3289 19.6374C17.0359 19.7312 14.3297 20.3984 10.9203 20.1788C10.9203 20.1788 8.38126 23.2429 7.58751 24.032C7.46173 24.1703 7.31485 24.2109 7.2211 24.1906C7.08673 24.1578 7.0461 23.9913 7.05391 23.7632L7.07813 19.5765C2.10548 18.2015 2.39844 13.0132 2.45157 10.3031C2.51251 7.59291 3.0211 5.37573 4.53516 3.87416C6.57345 2.03119 10.2359 1.78276 11.9406 1.77026H11.9422ZM12.3172 4.47963C12.1461 4.47573 12.0039 4.61791 12.0039 4.78901C12.0039 4.96401 12.1461 5.10229 12.3172 5.10229C13.8836 5.07416 15.3938 5.66791 16.5164 6.75854C17.6516 7.86088 18.2047 9.34213 18.2258 11.2789C18.2258 11.4499 18.3641 11.5921 18.5391 11.5921V11.5796C18.7102 11.5796 18.8524 11.4413 18.8524 11.2703C18.9297 9.42729 18.2461 7.63666 16.9641 6.3101C15.7274 5.10151 14.1602 4.47885 12.3172 4.47885V4.47963ZM8.19923 5.19604C7.9797 5.16323 7.75157 5.20854 7.56016 5.32182H7.54376C7.12032 5.57026 6.72579 5.88354 6.35157 6.30229C6.06641 6.63198 5.91173 6.96557 5.8711 7.28666C5.84688 7.47807 5.86329 7.66948 5.92032 7.85229L5.94063 7.86479C6.26173 8.80854 6.68126 9.71635 7.19376 10.571C7.85313 11.771 8.66642 12.882 9.61095 13.8749L9.63907 13.9156L9.6836 13.9484L9.71173 13.9812L9.74454 14.0093C10.7414 14.9578 11.8524 15.771 13.057 16.4382C14.432 17.1867 15.2664 17.5406 15.7672 17.6874V17.6953C15.9141 17.7398 16.0477 17.7601 16.182 17.7601C16.6094 17.7273 17.0125 17.557 17.3297 17.2679C17.7367 16.9015 18.0578 16.4992 18.2984 16.0718V16.064C18.5383 15.6124 18.457 15.1851 18.1109 14.896C17.4195 14.2898 16.6664 13.7523 15.8727 13.289C15.3399 12.9999 14.7984 13.1749 14.5789 13.4679L14.1109 14.0578C13.8711 14.3507 13.4352 14.3101 13.4352 14.3101L13.4227 14.3179C10.1719 13.4874 9.3047 10.196 9.3047 10.196C9.3047 10.196 9.26407 9.74838 9.56485 9.52026L10.1508 9.04838C10.4313 8.82026 10.6266 8.27963 10.3258 7.74604C9.86563 6.94838 9.32891 6.19994 8.72266 5.50776C8.5922 5.34526 8.40548 5.2351 8.19766 5.19448L8.19923 5.19604ZM12.8578 6.12416C12.443 6.12416 12.443 6.75073 12.8617 6.75073C13.9031 6.76713 14.8961 7.19838 15.6203 7.94682C16.2797 8.67494 16.6211 9.64369 16.5563 10.6242C16.5602 10.7953 16.6984 10.9335 16.8695 10.9335L16.882 10.9499C17.0531 10.9499 17.1953 10.8078 17.1953 10.6367C17.2234 9.39526 16.8375 8.35385 16.0805 7.51948C15.3195 6.6851 14.2578 6.21713 12.9024 6.12416C12.8859 6.12416 12.8742 6.12416 12.8578 6.12416ZM13.3711 7.80854C12.9438 7.79604 12.9274 8.4351 13.3508 8.4476C14.3805 8.50072 14.8805 9.02104 14.9461 10.0913C14.95 10.2624 15.0883 10.3968 15.2555 10.3968H15.268C15.443 10.389 15.5813 10.2382 15.5688 10.0632C15.4953 8.66791 14.7344 7.88198 13.3836 7.80932C13.3797 7.80932 13.3758 7.80932 13.3711 7.80932V7.80854Z" fill="#F77F00"></path> </svg> 