<?xml version="1.0" encoding="UTF-8"?> <svg xmlns="http://www.w3.org/2000/svg" width="25" height="25" viewBox="0 0 25 25" fill="none"> <path d="M11.8734 0.00363778C9.8672 0.0278565 5.55391 0.357544 3.14141 2.57082C1.34688 4.34895 0.72032 6.97786 0.646882 10.2286C0.585945 13.4677 0.512507 19.5505 6.37579 21.2068V23.7294C6.37579 23.7294 6.33907 24.7388 7.00626 24.9458C7.82813 25.206 8.2961 24.4294 9.07735 23.595L10.5344 21.9474C14.5461 22.281 17.6188 21.5122 17.9727 21.3982C18.7867 21.138 23.3719 20.5521 24.1211 14.4685C24.8899 8.18567 23.7469 4.22707 21.6836 2.43645H21.6711C21.0484 1.86301 18.5461 0.0395753 12.9555 0.0192628C12.9555 0.0192628 12.5406 -0.00886222 11.8734 0.00285653V0.00363778ZM11.9422 1.77004C12.5117 1.76614 12.8578 1.79036 12.8578 1.79036C17.5899 1.80286 19.8484 3.22707 20.3813 3.70676C22.1188 5.19582 23.0141 8.76457 22.3586 14.0099C21.7359 19.0958 18.0172 19.4177 17.3289 19.6372C17.0359 19.731 14.3297 20.3982 10.9203 20.1786C10.9203 20.1786 8.38126 23.2427 7.58751 24.0318C7.46173 24.17 7.31485 24.2107 7.2211 24.1904C7.08673 24.1575 7.0461 23.9911 7.05391 23.763L7.07813 19.5763C2.10548 18.2013 2.39844 13.013 2.45157 10.3029C2.51251 7.5927 3.0211 5.37551 4.53516 3.87395C6.57345 2.03098 10.2359 1.78254 11.9406 1.77004H11.9422ZM12.3172 4.47942C12.1461 4.47551 12.0039 4.6177 12.0039 4.78879C12.0039 4.96379 12.1461 5.10207 12.3172 5.10207C13.8836 5.07395 15.3938 5.6677 16.5164 6.75832C17.6516 7.86067 18.2047 9.34192 18.2258 11.2786C18.2258 11.4497 18.3641 11.5919 18.5391 11.5919V11.5794C18.7102 11.5794 18.8524 11.4411 18.8524 11.27C18.9297 9.42707 18.2461 7.63645 16.9641 6.30989C15.7274 5.10129 14.1602 4.47864 12.3172 4.47864V4.47942ZM8.19923 5.19582C7.9797 5.16301 7.75157 5.20832 7.56016 5.32161H7.54376C7.12032 5.57004 6.72579 5.88332 6.35157 6.30207C6.06641 6.63176 5.91173 6.96536 5.8711 7.28645C5.84688 7.47786 5.86329 7.66926 5.92032 7.85207L5.94063 7.86457C6.26173 8.80832 6.68126 9.71614 7.19376 10.5708C7.85313 11.7708 8.66641 12.8818 9.61095 13.8747L9.63907 13.9154L9.6836 13.9482L9.71173 13.981L9.74454 14.0091C10.7414 14.9575 11.8524 15.7708 13.057 16.438C14.432 17.1864 15.2664 17.5404 15.7672 17.6872V17.695C15.9141 17.7396 16.0477 17.7599 16.182 17.7599C16.6094 17.7271 17.0125 17.5568 17.3297 17.2677C17.7367 16.9013 18.0578 16.4989 18.2984 16.0716V16.0638C18.5383 15.6122 18.457 15.1849 18.1109 14.8958C17.4195 14.2896 16.6664 13.7521 15.8727 13.2888C15.3399 12.9997 14.7984 13.1747 14.5789 13.4677L14.1109 14.0575C13.8711 14.3505 13.4352 14.3099 13.4352 14.3099L13.4227 14.3177C10.1719 13.4872 9.3047 10.1958 9.3047 10.1958C9.3047 10.1958 9.26407 9.74817 9.56485 9.52004L10.1508 9.04817C10.4313 8.82004 10.6266 8.27942 10.3258 7.74582C9.86563 6.94817 9.32891 6.19973 8.72266 5.50754C8.5922 5.34504 8.40548 5.23489 8.19766 5.19426L8.19923 5.19582ZM12.8578 6.12395C12.443 6.12395 12.443 6.75051 12.8617 6.75051C13.9031 6.76692 14.8961 7.19817 15.6203 7.94661C16.2797 8.67473 16.6211 9.64348 16.5563 10.6239C16.5602 10.795 16.6984 10.9333 16.8695 10.9333L16.882 10.9497C17.0531 10.9497 17.1953 10.8075 17.1953 10.6364C17.2234 9.39504 16.8375 8.35364 16.0805 7.51926C15.3195 6.68489 14.2578 6.21692 12.9024 6.12395C12.8859 6.12395 12.8742 6.12395 12.8578 6.12395V6.12395ZM13.3711 7.80832C12.9438 7.79582 12.9274 8.43489 13.3508 8.44739C14.3805 8.50051 14.8805 9.02082 14.9461 10.0911C14.95 10.2622 15.0883 10.3966 15.2555 10.3966H15.268C15.443 10.3888 15.5813 10.238 15.5688 10.063C15.4953 8.6677 14.7344 7.88176 13.3836 7.80911C13.3797 7.80911 13.3758 7.80911 13.3711 7.80911V7.80832Z" fill="white"></path> </svg> 