<?xml version="1.0" encoding="UTF-8"?> <!-- Creator: CorelDRAW 2018 (64-Bit) --> <svg xmlns="http://www.w3.org/2000/svg" xmlns:xlink="http://www.w3.org/1999/xlink" xml:space="preserve" width="3508px" height="2480px" style="shape-rendering:geometricPrecision; text-rendering:geometricPrecision; image-rendering:optimizeQuality; fill-rule:evenodd; clip-rule:evenodd" viewBox="0 0 3508 2480.4"> <defs> <style type="text/css"> <![CDATA[ .fil0 {fill:none} .fil1 {fill:#005EA2;fill-rule:nonzero} .fil2 {fill:#E31E26;fill-rule:nonzero} ]]> </style> </defs> <g id="Слой_x0020_1"> <metadata id="CorelCorpID_0Corel-Layer"></metadata> <polygon class="fil0" points="-2.31,2.66 3510.31,2.66 3510.31,2477.75 -2.31,2477.75 "></polygon> <g id="_2411931860784"> <g id="_2141537906480"> <path class="fil1" d="M397.95 1674.42l0 7.78c0,29.02 -0.38,55.24 -25.64,75.41 -25.23,19.83 -56.02,19.44 -88.32,19.44 -75.7,0 -131.02,-3.52 -131.02,-100.51l0 -68.7c0,-87.78 49.38,-100.53 131.02,-100.53 76.48,0 112.08,7.43 113.58,87.1l0 10.31 -76.45 0 0 -10.31c-2.6,-23.73 -20.05,-25.47 -45.3,-25.47 -42.31,0 -46.39,12.37 -46.39,50.28l0 41.38c0,39.64 1.88,54.91 46.39,54.91 30.83,0 45.65,-2.16 45.65,-33.32l0 -7.77 76.48 0 0 0 0 0 0 0z"></path> <path class="fil1" d="M520.26 1777.05l-0.21 0c-79.78,0 -97.23,-20.53 -97.23,-94.86 0,-76.08 15.95,-95.2 97.23,-95.2l0.21 0 0 46.71c-29.94,0.18 -33.61,8.56 -33.61,48.49 0,39.97 3.67,47.99 33.61,48.14l0 46.72 0 0 0 0zm97.41 -94.86c0,76.45 -16.66,94.82 -97.41,94.86l0 -46.72 0.89 0c29.7,0 32.72,-7.78 32.72,-48.14 0,-40.35 -3.02,-48.49 -32.72,-48.49l-0.89 0 0 -46.71c81.46,0.04 97.41,16.7 97.41,95.21l0 -0.01 0 0z"></path> <path class="fil1" d="M740.34 1777.05l-0.22 0c-79.79,0 -97.2,-20.53 -97.2,-94.86 0,-76.08 15.96,-95.2 97.2,-95.2l0.22 0 0 46.71c-29.96,0.18 -33.61,8.56 -33.61,48.49 0,39.97 3.65,47.99 33.61,48.14l0 46.72 0 0 0 0zm97.4 -94.86c0,76.45 -16.66,94.82 -97.4,94.86l0 -46.72 0.92 0c29.7,0 32.69,-7.78 32.69,-48.14 0,-40.35 -2.99,-48.49 -32.69,-48.49l-0.92 0 0 -46.71c81.49,0.04 97.4,16.7 97.4,95.21l0 -0.01 0 0z"></path> <path class="fil1" d="M870.82 1589.12l63.84 0 -1.5 29.38 2.95 0c5.15,-17.37 16.44,-25.75 32.11,-29.3l0 44.55 -1.67 -0.05c-27.07,0 -31.89,9.25 -31.89,48.49 0,31.16 2.2,48.14 31.89,48.14l1.67 0 0 44.23c-13.07,-3.45 -23.94,-11.19 -30.62,-27.6l-2.94 0 0 108.34 -63.84 0 0 -266.21 0 0.03 0 0zm97.4 0.08c7.03,-1.61 14.96,-2.21 23.59,-2.21 47.14,0 73.86,19.12 73.86,68.31l0 42.45c0,56.71 -20.43,79.3 -73.86,79.3 -8.35,0 -16.3,-0.58 -23.59,-2.49l0 -44.23c25.05,-0.28 33.61,-6.92 33.61,-48.14 0,-35.52 -1.46,-48.06 -33.61,-48.45l0 -44.54 0 0z"></path> <path class="fil1" d="M1186.09 1777.05c-76.66,0 -95.21,-25.52 -95.21,-94.86 0,-71.43 17.1,-95.16 95.21,-95.2l0 42.45 -0.92 0c-22.63,0 -29.7,4.98 -30.4,29.42l31.32 0 0 33.6 -31.32 0c0,32.47 5.14,42.1 31.32,42.13l0 42.46 0 0 0 0 0 0zm0 -190.06l0.18 0c73.14,0 95.02,19.44 95.02,95.21l0 10.27 -95.2 0 0 -33.61 31.37 0c0,-27.25 -10.45,-29.35 -31.37,-29.41l0 -42.46 0 0 0 0 0 0zm95.2 126.04c0,27.92 -9.62,43.87 -26.32,53.03 -16.73,8.93 -40.46,11.02 -68.7,11.02l-0.18 0 0 -42.46 0.18 0c19.68,0 32.29,-2.12 32.29,-21.59l62.73 0 0 0 0 0 0 0z"></path> <path class="fil1" d="M1417.14 1661.34c0,-13.1 0.74,-27.64 -16.7,-27.64 -19.29,0 -23.76,14.5 -23.76,29.74l0 111.55 -63.84 0 0 -185.9 61.99 0 0 27.28 2.56 0c8.59,-21.24 25.29,-29.38 49.02,-29.38 44.55,0 48.25,34.67 48.25,68.67l0 14.53 -57.52 0 0 -8.85 0 0 0 0z"></path> <path class="fil2" d="M1739.56 1590.9l0 21.49 -35.91 -39.04c-22.35,14.25 -35.57,26.11 -35.57,47.28 0,26.61 24.37,42.49 47.99,42.49 8.46,0 16.14,-1.38 23.49,-4.05l0 15.31c-7.61,2.24 -15.31,3.27 -23.49,3.27 -30.73,0 -62.55,-21.32 -62.55,-57.02 0,-29.98 20.88,-45.9 42.28,-59.54l10.3 -6.57 8.23 8.98 25.23 27.43 0 -0.03 0 0zm0 -243.59l0 14.57 -0.36 0c-18.4,0 -30.26,11.08 -30.26,28.24 0,13.07 13.21,27.85 25.61,39.72 1.74,-1.14 3.41,-2.28 5.01,-3.35l0 17.41 -6.79 4.41 -8.3 -7.96c-14,-13.43 -30.1,-31.26 -30.1,-50.23 0,-25.19 18.44,-42.77 44.87,-42.77l0.32 0 0 -0.03 0 -0.01 0 0zm0 422.84c-8.81,0.96 -18.02,1.46 -27.57,1.46 -83.27,0 -172.89,-45.76 -172.89,-146.22 0,-51.83 31.61,-99.57 82.55,-124.62l16.74 -8.27 -12.11 -14.22c-23.56,-27.64 -38.2,-52.67 -38.2,-92.25 0,-76.49 58.02,-124.12 151.48,-124.48l0 -14.53c-100.89,0.36 -166.04,54.85 -166.04,139.01 0,44.16 16.59,72.33 41.67,101.71 -55.1,27.1 -90.66,79.93 -90.66,137.66 0,110.44 97.2,160.74 187.46,160.74 9.52,0 18.69,-0.47 27.54,-1.35l0 -14.64 0.03 0 0 0 0 0zm0 -326.25l0 -17.41c26.29,-18.15 30.62,-31.11 30.62,-37.76 0,-19.64 -15.7,-26.75 -30.62,-26.85l0 -14.57c27.03,0.17 45.19,16.76 45.19,41.42 0,17.23 -14.25,35.13 -42.31,53.32l-2.88 1.85 0 0 0 0zm0 230.48l0 -15.31c9.48,-3.41 18.47,-8.91 27.92,-16.27l-27.92 -30.37 0 -21.5 38.65 42.03 10.73 11.65 -12.51 9.7c-13,10.05 -24.79,16.55 -36.87,20.07l0 0 0 0zm1 -412.83c87.78,0 142.27,46.14 142.27,120.39 0,45.4 -25.72,86.86 -72.54,116.77l-14.78 9.45 12.01 12.76 33.85 36.05 11.97 12.76 10.38 -14.11 35.1 -47.74 0.63 -0.85 1.03 0 118.44 0 4.19 0 -2.51 3.33 -92.94 123.42 -7.39 9.8 8.46 8.96 97.83 103.3 3.34 3.51 -4.86 0 -131.34 0 -0.96 0 -0.64 -0.67 -28.67 -32.54 -9.66 -10.98 -10.91 9.7c-29.48,26.18 -62.77,40.89 -103.3,45.29l0 14.64c44.16,-4.55 80.81,-20.5 112.97,-49.06l28.66 32.54 5.02 5.61 7.49 0 131.29 0 38.69 0 -26.57 -28.03 -97.84 -103.33 92.94 -123.42 20.07 -26.64 -33.39 0 -118.41 0 -8.41 0 -5.01 6.79 -35.1 47.78 -33.82 -36.06c50.66,-32.37 79.25,-78.54 79.25,-129.03 0,-81.95 -61.56,-134.92 -156.83,-134.92l-1 0 0 14.53 1 0 0 0 0 0z"></path> <polygon class="fil2" points="2347.52,1774.99 2276.76,1774.99 2276.76,1670.86 2184.36,1670.86 2184.36,1774.99 2113.53,1774.99 2113.53,1509.48 2184.36,1509.48 2184.36,1609.31 2276.76,1609.31 2276.76,1509.48 2347.52,1509.48 "></polygon> <path class="fil2" d="M2507.17 1774.99l2.17 -35.81 -2.88 0c-8.46,28.7 -29.7,37.87 -55.57,37.87 -36.8,0 -63.02,-15.56 -63.02,-60.85l0 -127.08 60.89 0 0 110.8c0,16.94 1.78,30.41 22.31,30.41 16.27,0 34.36,-8.45 34.36,-26.89l0 -114.32 60.88 0 0 185.87 -59.14 0 0 0 0 0 0 0z"></path> <path class="fil2" d="M2668.62 1589.12l0 34.67 2.49 0c8.85,-29.38 26.89,-36.8 55.56,-36.8 41.1,0 59.86,19.44 59.86,59.47l0 128.48 -60.89 0 0 -114.34c-0.39,-18.05 -5.33,-26.9 -25.15,-26.9 -27.25,0 -31.87,16.28 -31.87,38.98l0 102.27 -60.88 0 0 -185.83 60.88 0 0 0 0 0z"></path> <path class="fil2" d="M2965.65 1633.7l-70.49 0 0 83.21c0.39,11 2.48,15.59 13.86,15.59 15.91,0 15.2,-11.33 15.91,-24.12l0.35 -9.88 48.53 0 0 16.66c0,50.59 -18.83,61.92 -68.38,61.92 -38.94,0 -71.16,-4.94 -71.16,-51.69l0 -91.65 -22.62 0 0 -44.62 22.62 0 0 -39.32 60.89 0 0 39.32 70.49 0 0 44.62 0 -0.03 0 -0.01z"></path> <path class="fil2" d="M3079.78 1777.05c-73.11,0 -90.8,-25.52 -90.8,-94.86 0,-71.43 16.26,-95.16 90.8,-95.2l0 42.45 -0.85 0c-21.6,0 -28.35,4.98 -29.06,29.42l29.91 0 0 33.6 -29.91 0c0,32.47 4.97,42.1 29.91,42.13l0 42.46 0 0 0 0 0 0zm0 -190.06l0.18 0c69.76,0 90.62,19.44 90.62,95.21l0 10.27 -90.8 0 0 -33.61 29.94 0c0,-27.25 -9.97,-29.35 -29.94,-29.41l0 -42.46 0 0 0 0zm90.8 126.04c0,27.92 -9.2,43.87 -25.15,53.03 -15.92,8.93 -38.59,11.02 -65.47,11.02l-0.18 0 0 -42.46 0.18 0c18.79,0 30.76,-2.12 30.76,-21.59l59.86 0 0 0 0 0 0 0z"></path> <path class="fil2" d="M3300.18 1661.34c0,-13.1 0.71,-27.64 -15.96,-27.64 -18.4,0 -22.67,14.5 -22.67,29.74l0 111.55 -60.88 0 0 -185.9 59.18 0 0 27.28 2.42 0c8.13,-21.24 24.09,-29.38 46.71,-29.38 41.17,0 45.79,32.55 46.05,65.47l0 17.73 -54.85 0 0 -8.85 0 0 0 0 0 0z"></path> <path class="fil1" d="M980.87 990.57c0,-99.4 24.26,-160.1 153.46,-160.1l215.03 0c72.9,0 114.86,16.55 114.86,73.96l0 18.9 245.08 0c2.23,-226.01 -42.91,-298.01 -390.46,-298.23l-238.82 0c-219.97,0.22 -350.88,55.67 -350.88,289.27l0 230.17c0,234.1 131.41,289.27 352.19,289.27l236.03 0c81.02,0 145.68,-3.87 197.15,-12.64 -1.95,-11.23 -2.94,-23.06 -2.94,-35.67 0,-61.32 24.47,-112.33 67.88,-148.5 33.54,-27.95 77.69,-45.71 129.38,-50.83 0.57,-15.91 0.68,-32.78 0.5,-50.58l-245.08 0 0 18.89c0,57.41 -41.99,73.96 -114.86,73.96l-215.06 0c-129.2,0 -153.46,-60.7 -153.46,-160.07l0 -77.83 0 0.03 0 0z"></path> <path class="fil2" d="M2493.49 625.1l0 294.07 -490.06 0 0 -294.07 -245.11 0 0 560.08c54.99,3.23 101.7,21.41 136.55,51.43 41.03,35.32 64.16,85.08 64.16,144.8 0,16.99 -2.21,33.61 -6.54,49.7l-0.7 2.7 51.64 0 0 -294.07 490.06 0 0 294.07 245.08 0 0 -808.71 -245.08 0 0 0 0 0z"></path> </g> </g> </g> </svg> 